<svg width="24" height="23" viewBox="0 0 24 23" fill="none" xmlns="http://www.w3.org/2000/svg">
<g clip-path="url(#clip0_156_7495)">
<path fill-rule="evenodd" clip-rule="evenodd" d="M14.2176 1.99512H18.2717C18.9117 1.99512 19.4302 2.41923 19.4302 2.94239V12.3454H4.53537C4.47988 12.3454 4.42458 12.3461 4.36943 12.3474V2.94239C4.36943 2.41923 4.88812 1.99512 5.52796 1.99512H9.58343V6.7315C9.58343 6.85712 9.64446 6.97758 9.75309 7.0664C9.86173 7.15523 10.0091 7.20513 10.1627 7.20513H13.6383C13.7919 7.20513 13.9393 7.15523 14.0479 7.0664C14.1565 6.97758 14.2176 6.85712 14.2176 6.7315V1.99512ZM4.53537 14.3095H19.4645C21.7817 14.3095 23.6604 16.0316 23.6604 18.1558C23.6604 20.2801 21.7817 22.0021 19.4645 22.0021H4.53537C2.21802 22.0021 0.339432 20.2801 0.339432 18.1558C0.339432 16.0316 2.21802 14.3095 4.53537 14.3095ZM7.55541 18.1429C7.55541 18.9023 6.88384 19.5179 6.05541 19.5179C5.22698 19.5179 4.55541 18.9023 4.55541 18.1429C4.55541 17.3835 5.22698 16.7679 6.05541 16.7679C6.88384 16.7679 7.55541 17.3835 7.55541 18.1429ZM13.5079 18.1429C13.5079 18.9023 12.8363 19.5179 12.0079 19.5179C11.1794 19.5179 10.5079 18.9023 10.5079 18.1429C10.5079 17.3835 11.1794 16.7679 12.0079 16.7679C12.8363 16.7679 13.5079 17.3835 13.5079 18.1429ZM17.9602 19.5179C18.7887 19.5179 19.4602 18.9023 19.4602 18.1429C19.4602 17.3835 18.7887 16.7679 17.9602 16.7679C17.1319 16.7679 16.4603 17.3835 16.4603 18.1429C16.4603 18.9023 17.1319 19.5179 17.9602 19.5179Z" fill="white"/>
</g>
<defs>
<clipPath id="clip0_156_7495">
<rect width="24" height="22" fill="white" transform="translate(0 0.228516)"/>
</clipPath>
</defs>
</svg>
