<svg width="19" height="25" viewBox="0 0 19 25" fill="none" xmlns="http://www.w3.org/2000/svg">
<path d="M16.625 4.03809H16.4904V5.58647H16.625C16.835 5.58647 17.0363 5.66804 17.1848 5.81323C17.3333 5.95842 17.4167 6.15534 17.4167 6.36067V21.8445C17.4167 22.0499 17.3333 22.2468 17.1848 22.392C17.0363 22.5372 16.835 22.6187 16.625 22.6187H2.375C2.16504 22.6187 1.96367 22.5372 1.81521 22.392C1.66674 22.2468 1.58333 22.0499 1.58333 21.8445V6.36067C1.58333 6.15534 1.66674 5.95842 1.81521 5.81323C1.96367 5.66804 2.16504 5.58647 2.375 5.58647H2.50958V4.03809H2.375C1.74511 4.03809 1.14102 4.28279 0.695621 4.71835C0.250223 5.15392 0 5.74468 0 6.36067V21.8445C0 22.4605 0.250223 23.0513 0.695621 23.4869C1.14102 23.9224 1.74511 24.1671 2.375 24.1671H16.625C17.2549 24.1671 17.859 23.9224 18.3044 23.4869C18.7498 23.0513 19 22.4605 19 21.8445V6.36067C19 5.74468 18.7498 5.15392 18.3044 4.71835C17.859 4.28279 17.2549 4.03809 16.625 4.03809Z" fill="white"/>
<path d="M15.0417 2.48957H12.6667V0.166992H6.33333V2.48957H3.95833V7.13473H15.0417V2.48957ZM13.4583 5.58635H5.54166V4.03796H7.91666V1.71538H11.0833V4.03796H13.4583V5.58635Z" fill="white"/>
<path d="M4.75 10.2314H14.25V11.7798H4.75V10.2314ZM4.75 14.1024H14.25V15.6508H4.75V14.1024ZM4.75 17.9734H14.25V19.5218H4.75V17.9734Z" fill="white"/>
</svg>
