<svg width="24" height="27" viewBox="0 0 24 27" fill="none" xmlns="http://www.w3.org/2000/svg">
<path id="Vector" d="M1.21222 0.930664L0 2.24366L2.13547 6.24366L3.52034 6.02366L11.9736 15.1807L11.2525 15.9307C10.8832 16.3307 10.8832 16.9367 11.2525 17.3367L11.6274 17.7437C11.9967 18.1437 12.5617 18.1437 12.8387 17.7437L13.9355 18.9307C13.8432 19.5307 13.9355 20.2437 14.3971 20.7437L19.3882 26.1187C20.4038 27.2187 22.0656 27.2187 23.0812 26.1187C24.2814 24.9187 24.2703 23.1247 23.2547 22.0247L18.2923 16.6177C17.8307 16.1177 17.1724 15.9177 16.6184 16.1177L15.4062 14.9307C15.6832 14.5307 15.6832 13.9187 15.4062 13.6177L15.06 13.2437C14.9761 13.1489 14.8753 13.0734 14.7638 13.0219C14.6522 12.9704 14.5322 12.9438 14.411 12.9438C14.2897 12.9438 14.1697 12.9704 14.0582 13.0219C13.9466 13.0734 13.8458 13.1489 13.7619 13.2437L13.1563 13.8997L4.70302 4.74366L4.90429 3.24366L1.21222 0.930664ZM19.2155 0.961664C17.394 0.797664 14.9788 2.10566 13.8487 3.24266C12.4583 4.74866 12.6854 6.71766 13.7905 8.61866L11.8296 10.7437L13.2144 12.4307C13.953 11.7307 15.0425 11.7307 15.7811 12.4307L16.1568 12.8367L16.2436 12.9307L17.0514 12.0557C18.7207 13.1187 20.4582 13.2717 21.7831 11.8367C23.0756 10.5367 24.4771 7.33066 23.8309 5.43066L21.2347 8.33666C20.8654 8.73666 20.3059 8.73666 19.9366 8.33666L17.2527 5.43066C17.1652 5.33976 17.0956 5.23062 17.048 5.1098C17.0004 4.98899 16.9759 4.85901 16.9759 4.72766C16.9759 4.59632 17.0004 4.46634 17.048 4.34552C17.0956 4.22471 17.1652 4.11557 17.2527 4.02466L19.9375 1.11866C19.7067 1.03066 19.4759 0.985664 19.2155 0.961664ZM9.05982 13.4307L5.71213 17.0557C5.35234 16.9694 4.98471 16.9275 4.61623 16.9307C2.03114 16.9307 0 19.1307 0 21.9307C0 24.7307 2.03114 26.9307 4.61623 26.9307C7.20133 26.9307 9.23247 24.7307 9.23247 21.9307C9.23247 21.4177 9.15769 20.9247 9.03028 20.4617L10.9922 18.3367L10.7041 17.9307C9.96553 17.1307 9.97107 15.9187 10.6173 15.1177L9.05982 13.4307ZM16.215 17.9937C16.3304 17.9937 16.4393 18.0177 16.5317 18.1187L21.9853 24.0247C22.1699 24.2247 22.1699 24.5427 21.9853 24.7427C21.8006 24.9427 21.5052 24.9427 21.3205 24.7427L15.8688 18.8367C15.6841 18.6367 15.6841 18.3187 15.8688 18.1187C15.9611 18.0187 16.0996 17.9937 16.215 17.9937ZM5.25143 19.3357L7.01114 21.2427L6.37594 23.8357L3.98196 24.5237L2.22133 22.6167L2.85653 20.0237L5.25143 19.3357Z" fill="#F5F5F5"/>
</svg>
